# AST/ASF file generated using VICON BodyLanguage
# -----------------------------------------------
:version 1.10
:name VICON
:units
  mass 1.0
  length 0.45
  angle deg
:documentation
   .ast/.asf automatically generated from VICON data using
   VICON BodyBuilder and BodyLanguage model FoxedUp or BRILLIANT.MOD
:root
   order TX TY TZ RX RY RZ
   axis XYZ
   position 0 0 0  
   orientation 0 -0 0 
:bonedata
  begin
     id 1 
     name lhipjoint
     direction 0.432694 -0.693742 0.575759 
     length 2.19277 
     axis 0 -0 0  XYZ
  end
  begin
     id 2 
     name lfemur
     direction 0.34202 -0.939693 0  
     length 6.69022  
     axis 0 -0 20  XYZ
    dof rx ry rz
    limits (-160.0 20.0)
           (-70.0 70.0)
           (-60.0 70.0)
  end
  begin
     id 3 
     name ltibia
     direction 0.34202 -0.939693 0   
     length 6.50337   
     axis 0 -0 20   XYZ
    dof rx
    limits (-10.0 170.0)
  end
  begin
     id 4 
     name lfoot
     direction 0.158999 -0.435969 0.885805   
     length 2.70564   
     axis -90 -1.13533e-015 20   XYZ
    dof rx rz
    limits (-45.0 90.0)
           (-70.0 20.0)
  end
  begin
     id 5 
     name ltoes
     direction -0.00592919 0.00964381 0.999936   
     length 1.29929   
     axis -90 -1.13533e-015 20   XYZ
    dof rx
    limits (-90.0 20.0)
  end
  begin
     id 6 
     name rhipjoint
     direction -0.414359 -0.700339 0.581234   
     length 2.17212  
     axis 0 -0 0  XYZ 
  end
  begin
     id 7 
     name rfemur
     direction -0.34202 -0.939693 0   
     length 7.17659   
     axis 0 -0 -20   XYZ
    dof rx ry rz
    limits (-160.0 20.0)
           (-70.0 70.0)
           (-70.0 60.0)
  end
  begin
     id 8 
     name rtibia
     direction -0.34202 -0.939693 0   
     length 6.36669   
     axis 0 -0 -20   XYZ
    dof rx
    limits (-10.0 170.0)
 end
 begin
     id 9 
     name rfoot
     direction -0.137064 -0.37658 0.916188   
     length 2.22351  
     axis -90 1.13533e-015 -20   XYZ
    dof rx rz
    limits (-45.0 90.0)
           (-20.0 70.0)
  end
  begin
     id 10 
     name rtoes
     direction -0.000784077 -0.00289101 0.999996   
     length 1.09522   
     axis -90 1.13533e-015 -20   XYZ
    dof rx
    limits (-90.0 20.0)
  end
  begin
     id 11 
     name lowerback
     direction -0.0176242 0.984912 -0.172157   
     length 1.65301   
     axis 0 -0 0   XYZ
    dof rx ry rz
    limits (-20.0 45.0)
           (-30.0 30.0)
           (-30.0 30.0)
  end
  begin
     id 12 
     name upperback
     direction -0.00218128 0.998776 -0.0494072   
     length 1.67776   
     axis 0 -0 0   XYZ
    dof rx ry rz
    limits (-20.0 45.0)
           (-30.0 30.0)
           (-30.0 30.0)
  end
  begin
     id 13 
     name thorax
     direction 0.00544186 0.999658 0.0255711   
     length 1.72293   
     axis 0 -0 0   XYZ
    dof rx ry rz
    limits (-20.0 45.0)
           (-30.0 30.0)
           (-30.0 30.0)
  end
  begin
     id 14 
     name lowerneck
     direction -0.105325 0.983841 0.144785   
     length 2.14226   
     axis 0 -0 0   XYZ
    dof rx ry rz
    limits (-20.0 45.0)
           (-30.0 30.0)
           (-30.0 30.0)
  end
  begin
     id 15 
     name upperneck
     direction 0.0547957 0.988053 -0.144041   
     length 2.17508   
     axis 0 -0 0   XYZ
    dof rx ry rz
    limits (-20.0 45.0)
           (-30.0 30.0)
           (-30.0 30.0)
  end
  begin
     id 16
     name head
     direction 0.0247488 0.997534 -0.0656813  
     length 2.20048  
     axis 0 -0 0   XYZ
    dof rx ry rz
    limits (-20.0 45.0)
           (-30.0 30.0)
           (-30.0 30.0)
  end
  begin
     id 17 
     name lclavicle
     direction 0.820559 0.567247 -0.0701026  
     length 4.09615  
     axis 0 -0 0   XYZ
    dof ry rz
    limits (-20.0 10.0)
           (0.0 20.0)
  end
  begin
     id 18 
     name lhumerus
     direction 0.999977 -0.0067566 -9.96392e-005   
     length 4.59333   
     axis -180 -30 -90   XYZ
    dof rx ry rz
    limits (-60.0 90.0)
           (-90.0 90.0)
           (-90.0 90.0)
  end
  begin
     id 19
     name lradius
     direction 1 -4.48982e-011 -2.53425e-027   
     length 2.81151   
     axis -180 -30 -90   XYZ
    dof rx
    limits (-10.0 170.0)
  end
  begin
     id 20
     name lwrist
     direction 1 -4.48939e-011 -7.39254e-028   
     length 1.40576   
     axis 2.56395e-016 90 90   XYZ
    dof ry
    limits (-180.0 0.0)
 end
  begin
     id 21 
     name lhand
     direction 1 -4.48939e-011 -1.47851e-027   
     length 0.895651   
     axis 9.43423e-016 90 90   XYZ
    dof rx rz
    limits (-90.0 90.0)
           (-45.0 45.0)
  end
  begin
     id 22 
     name lfingers
     direction 1 -4.48978e-011 -2.95702e-027   
     length 0.722097   
     axis 1.88685e-015 90 90   XYZ
    dof rx
    limits (0.0 90.0)
  end
  begin
     id 23
     name lthumb
     direction 0.707107 -6.34931e-011 0.707107   
     length 1.03679   
     axis -90 45 -9.86935e-015   XYZ
    dof rx rz
    limits (-45.0 45.0)
           (-45.0 45.0)
  end
  begin
     id 24 
     name rclavicle
     direction -0.831414 0.553102 -0.0531864   
     length 4.24872  
     axis 0 -0 0   XYZ 
    dof ry rz
    limits (-10.0 20.0)
           (-20.0 0.0)
  end
  begin
     id 25 
     name rhumerus
     direction -0.999916 -0.000939607 0.0129331  
     length 4.74834   
     axis -180 30 90   XYZ
    dof rx ry rz
    limits (-90.0 60.0)
           (-90.0 90.0)
           (-90.0 90.0)
  end
  begin
     id 26 
     name rradius
     direction -1 -4.48956e-011 -1.31752e-027   
     length 2.79907   
     axis -180 30 90   XYZ
    dof rx
    limits (-10.0 170.0)
  end
  begin
     id 27 
     name rwrist
     direction -1 -4.4897e-011 -7.39254e-028   
     length 1.39954   
     axis 2.56395e-016 -90 -90   XYZ
    dof ry
    limits (-180.0 0.0)
  end
  begin
     id 28
     name rhand
     direction -0.999997 -0.00250697 0.000800838   
     length 0.953304   
     axis 9.43423e-016 -90 -90   XYZ
    dof rx rz
    limits (-90.0 90.0)
           (-45.0 45.0)
  end
  begin
     id 29
     name rfingers
     direction -1 -4.48954e-011 -2.95702e-027   
     length 0.763342   
     axis 1.88685e-015 -90 -90   XYZ
    dof rx
    limits (0.0 90.0)
  end
  begin
     id 30
     name rthumb
     direction -0.709701 -0.00217037 0.7045   
     length 1.10115   
     axis -90 -45 9.86935e-015   XYZ
    dof rx rz
    limits (-45.0 45.0)
           (-45.0 45.0)
  end
:hierarchy
  begin
    root lhipjoint rhipjoint lowerback
    lhipjoint lfemur
    lfemur ltibia
    ltibia lfoot
    lfoot ltoes
    rhipjoint rfemur
    rfemur rtibia
    rtibia rfoot
    rfoot rtoes
    lowerback upperback
    upperback thorax
    thorax lowerneck lclavicle rclavicle
    lowerneck upperneck
    upperneck head
    lclavicle lhumerus
    lhumerus lradius
    lradius lwrist
    lwrist lhand lthumb
    lhand lfingers
    rclavicle rhumerus
    rhumerus rradius
    rradius rwrist
    rwrist rhand rthumb
    rhand rfingers
  end

#!OML:ASF G:\ViconDB\ViconDB\414\test\team2\shane.ASF
:FULLY-SPECIFIED
:DEGREES
95
root 3.43851 16.08 -17.6615 -5.79975 4.51091 -5.34781
lowerback 3.19467 -5.55695 0.589465
upperback 2.69063 -7.49831 7.51289
thorax 1.96173 -3.86996 7.57722
lowerneck -16.0621 -0.26596 -5.99723
upperneck 25.9033 0.744135 1.91471
head 11.0051 -0.0288493 1.8152
rclavicle -5.63555e-014 1.59028e-014
rhumerus -50.7929 -11.1762 -72.0877
rradius 25.8516
rwrist 38.6705
rhand -30.1551 -16.3593
rfingers 7.12502
rthumb -3.4672 -46.3108
lclavicle 9.06458e-014 -7.63333e-014
lhumerus -18.1974 -21.1461 98.6544
lradius 33.9859
lwrist -10.9229
lhand -42.3112 7.2883
lfingers 7.12502
lthumb -15.1949 36.7104
rfemur -25.8213 -17.3197 25.8004
rtibia 49.1777
rfoot -17.8719 5.05553
rtoes -2.73609
lfemur 38.2788 -3.23198 -11.1357
ltibia -1.59028e-014
lfoot -14.7658 -19.9805
ltoes -26.7522
96
root 3.42802 16.1007 -17.4813 -5.95744 4.84693 -5.22388
lowerback 3.20961 -5.4698 0.787136
upperback 2.78779 -7.37835 7.44074
thorax 2.00295 -3.804 7.38652
lowerneck -16.1308 -0.454847 -6.08876
upperneck 25.7874 0.512636 1.9004
head 10.9868 -0.141606 1.79222
rclavicle 8.68689e-014 3.02153e-014
rhumerus -49.906 -11.9598 -72.4068
rradius 25.665
rwrist 37.7563
rhand -30.3116 -17.1279
rfingers 7.12502
rthumb -3.61839 -47.077
lclavicle 8.68689e-014 3.02153e-014
lhumerus -18.7295 -20.8462 99.182
lradius 33.3785
lwrist -11.0618
lhand -41.999 7.82874
lfingers 7.12502
lthumb -14.8942 37.2733
rfemur -24.8926 -17.6143 25.398
rtibia 49.2359
rfoot -18.4347 5.17882
rtoes -2.78756
lfemur 38.634 -3.57606 -11.1871
ltibia 1.49486e-013
lfoot -11.069 -20.564
ltoes -29.1439
97
root 3.40765 16.1321 -17.2996 -6.08224 5.15735 -5.06683
lowerback 3.28801 -5.3592 0.713969
upperback 2.81198 -7.22709 7.4072
thorax 1.96968 -3.7281 7.39968
lowerneck -16.1819 -0.629219 -6.28911
upperneck 25.8089 0.297642 2.00808
head 11.0152 -0.24527 1.83605
rclavicle 6.16232e-014 -5.725e-014
rhumerus -49.5947 -12.1823 -72.5213
rradius 25.5934
rwrist 38.1022
rhand -30.5477 -17.4137
rfingers 7.12502
rthumb -3.84632 -47.3587
lclavicle 6.16232e-014 -5.725e-014
lhumerus -19.43 -20.4826 99.6235
lradius 32.7201
lwrist -11.3244
lhand -41.4435 7.40815
lfingers 7.12502
lthumb -14.359 36.8915
rfemur -23.9138 -17.65 25.0561
rtibia 49.1554
rfoot -18.9739 4.95015
rtoes -3.17073
lfemur 32.6152 -3.78641 -10.995
ltibia 13.3192
lfoot -13.9076 -21.4939
ltoes -30.4186
98
root 3.38466 16.1599 -17.1161 -6.24789 5.32592 -5.09055
lowerback 3.3287 -5.20681 0.923285
upperback 2.86757 -7.01442 7.28979
thorax 1.93569 -3.61256 7.15905
lowerneck -16.2184 -0.798114 -6.12148
upperneck 25.9109 0.0240728 1.97066
head 11.0736 -0.359079 1.75725
rclavicle -1.6201e-014 7.95139e-015
rhumerus -49.3006 -11.7559 -73.4275
rradius 25.9268
rwrist 36.8701
rhand -30.601 -17.7457
rfingers 7.12502
rthumb -3.89786 -47.6898
lclavicle -1.6201e-014 7.95139e-015
lhumerus -20.2841 -20.8132 99.9806
lradius 32.2486
lwrist -10.7456
lhand -41.5145 7.80668
lfingers 7.12502
lthumb -14.4274 37.2852
rfemur -22.8559 -17.6856 25.0099
rtibia 48.9448
rfoot -19.5654 4.59414
rtoes -3.6982
lfemur 29.436 -2.96479 -9.77495
ltibia 20.339
lfoot -12.3054 -23.3488
ltoes -30.3904
99
root 3.35423 16.1858 -16.9393 -6.37905 5.53887 -5.13413
lowerback 3.38412 -5.04433 0.981126
upperback 2.92753 -6.79386 7.253
thorax 1.92858 -3.49931 7.09036
lowerneck -16.3211 -1.03514 -6.33144
upperneck 26.054 -0.324017 2.25402
head 11.1648 -0.504141 1.84953
rclavicle -7.85199e-014 1.11319e-014
rhumerus -48.866 -12.5553 -73.3737
rradius 25.8928
rwrist 37.4635
rhand -30.7994 -17.767
rfingers 7.12502
rthumb -4.08944 -47.7075
lclavicle -7.85199e-014 1.11319e-014
lhumerus -20.9086 -20.6919 100.223
lradius 31.4854
lwrist -11.4608
lhand -40.9022 7.50819
lfingers 7.12502
lthumb -13.8374 37.0279
rfemur -21.8008 -17.493 25.0087
rtibia 48.6239
rfoot -20.117 4.08743
rtoes -3.64114
lfemur 26.7095 -2.11617 -8.4328
ltibia 26.1847
lfoot -9.79488 -24.9837
ltoes -29.4429
100
root 3.31783 16.2211 -16.7614 -6.49528 5.80544 -5.21957
lowerback 3.45569 -4.82679 1.00354
upperback 2.96175 -6.4962 7.14638
thorax 1.87218 -3.34548 6.96919
lowerneck -16.5229 -1.30555 -6.21283
upperneck 26.3538 -0.796364 2.48804
head 11.3412 -0.680372 1.85211
rclavicle -1.58034e-014 3.18055e-015
rhumerus -48.5253 -12.5595 -74.1159
rradius 26.1861
rwrist 37.1506
rhand -30.8985 -18.0952
rfingers 7.12502
rthumb -4.18508 -48.0339
lclavicle -1.58034e-014 3.18055e-015
lhumerus -21.6188 -21.241 100.488
lradius 30.7146
lwrist -11.3377
lhand -40.6377 7.56676
lfingers 7.12502
lthumb -13.5825 37.1037
rfemur -20.6752 -17.2914 25.1143
rtibia 48.1994
rfoot -20.7754 3.32507
rtoes -4.19335
lfemur 23.9817 -1.04611 -6.90131
ltibia 31.4758
lfoot -6.88632 -26.8158
ltoes -27.9425
101
root 3.27735 16.2476 -16.5851 -6.62728 6.09175 -5.21398
lowerback 3.68445 -4.65945 0.980105
upperback 2.92328 -6.25329 7.01786
thorax 1.66232 -3.21736 6.86772
lowerneck -16.5616 -1.55663 -6.2322
upperneck 26.5434 -1.23024 2.77479
head 11.4445 -0.844145 1.90082
rclavicle -8.94531e-015 -3.33958e-014
rhumerus -48.1628 -12.7259 -74.6819
rradius 26.4312
rwrist 36.8144
rhand -31.0382 -18.0412
rfingers 7.12502
rthumb -4.32003 -47.9771
lclavicle -8.94531e-015 -3.33958e-014
lhumerus -22.4019 -21.3937 100.617
lradius 30.0388
lwrist -11.4788
lhand -40.2007 7.05192
lfingers 7.12502
lthumb -13.1613 36.6165
rfemur -19.5566 -17.0302 25.142
rtibia 47.7786
rfoot -21.4602 2.50345
rtoes -3.9663
lfemur 21.4159 -0.257963 -5.66326
ltibia 36.4384
lfoot -4.01226 -28.2679
ltoes -25.5498
